<svg width="128" height="128" viewBox="0 0 128 128" fill="none" xmlns="http://www.w3.org/2000/svg">
  <defs>
    <linearGradient id="bg" x1="0" y1="0" x2="128" y2="128" gradientUnits="userSpaceOnUse">
      <stop offset="0" stop-color="#1E90FF"/>
      <stop offset="1" stop-color="#0B6FE0"/>
    </linearGradient>
  </defs>
  <rect width="128" height="128" rx="30" fill="url(#bg)"/>
  <!-- speech bubble -->
  <path d="M30 34 H98 a10 10 0 0 1 10 10 V80 a10 10 0 0 1 -10 10 H56 l-14 14 v-14 H30 a10 10 0 0 1 -10 -10 V44 a10 10 0 0 1 10 -10 Z" fill="#FFFFFF"/>
  <!-- summary lines with bullets -->
  <circle cx="36" cy="50" r="3.2" fill="#0B6FE0"/>
  <rect x="44" y="47" width="54" height="6" rx="3" fill="#9EC9FF"/>
  <circle cx="36" cy="64" r="3.2" fill="#0B6FE0"/>
  <rect x="44" y="61" width="46" height="6" rx="3" fill="#9EC9FF"/>
  <circle cx="36" cy="78" r="3.2" fill="#0B6FE0"/>
  <rect x="44" y="75" width="34" height="6" rx="3" fill="#9EC9FF"/>
</svg>
